<svg width="23" height="30" viewBox="0 0 23 30" fill="none" xmlns="http://www.w3.org/2000/svg">
<g clip-path="url(#clip0_1_54)">
<path d="M5.69169 6.09041H0.461619C0.370828 6.08973 0.28226 6.06252 0.206989 6.01227C0.131717 5.96202 0.0730836 5.89092 0.0384325 5.80786C0.00378134 5.7248 -0.0053483 5.63347 0.0121769 5.54529C0.0297021 5.45712 0.0730958 5.37603 0.136953 5.31214L5.36702 0.130581C5.43158 0.0652481 5.51485 0.0210733 5.60555 0.00401556C5.69626 -0.0130421 5.79004 -0.00219441 5.8743 0.0351512C5.95883 0.0692833 6.03104 0.127722 6.08168 0.202903C6.13232 0.278084 6.15908 0.366537 6.15841 0.456891V5.62846C6.15909 5.68931 6.14744 5.74968 6.12422 5.80602C6.10101 5.86237 6.0667 5.91359 6.02323 5.95661C5.97975 5.99964 5.92801 6.0336 5.87108 6.05658C5.81415 6.07955 5.75316 6.09108 5.69169 6.09041ZM1.57259 5.17657H5.23005V1.5565L1.57259 5.17657Z" fill="#232323"/>
<path d="M22.5384 30H0.461594C0.339164 30 0.221766 29.9519 0.135195 29.8662C0.0486234 29.7805 1.52588e-05 29.6643 1.52588e-05 29.5431V5.62847C0.000946518 5.50764 0.0501415 5.3921 0.136928 5.30712L5.367 0.125558C5.40976 0.0837078 5.46046 0.0506317 5.51617 0.028229C5.57189 0.00582632 5.63153 -0.00546655 5.69166 -0.00499043H22.5384C22.6608 -0.00499043 22.7782 0.0431207 22.8648 0.128807C22.9513 0.214493 23 0.330691 23 0.451869V29.5381C23.0007 29.5985 22.9892 29.6585 22.9663 29.7145C22.9434 29.7705 22.9095 29.8214 22.8666 29.8644C22.8237 29.9074 22.7725 29.9415 22.7162 29.9647C22.6599 29.988 22.5994 30 22.5384 30ZM0.923235 29.0862H22.0767V0.90879H5.88443L0.923235 5.81926V29.0862Z" fill="#232323"/>
<path d="M18.5461 9.67535H8.61868C8.55806 9.67535 8.49802 9.66349 8.44202 9.64053C8.38601 9.61757 8.33509 9.58392 8.29222 9.54149C8.24936 9.49906 8.21535 9.44872 8.19215 9.39329C8.16896 9.33785 8.15704 9.27843 8.15704 9.21843C8.15704 9.15842 8.16896 9.099 8.19215 9.04356C8.21535 8.98813 8.24936 8.93779 8.29222 8.89536C8.33509 8.85294 8.38601 8.81928 8.44202 8.79632C8.49802 8.77336 8.55806 8.76151 8.61868 8.76151H18.5461C18.6067 8.76151 18.6668 8.77336 18.7228 8.79632C18.7788 8.81928 18.8296 8.85294 18.8725 8.89536C18.9154 8.93779 18.9494 8.98813 18.9726 9.04356C18.9958 9.099 19.0077 9.15842 19.0077 9.21843C19.0077 9.27843 18.9958 9.33785 18.9726 9.39329C18.9494 9.44872 18.9154 9.49906 18.8725 9.54149C18.8296 9.58392 18.7788 9.61757 18.7228 9.64053C18.6668 9.66349 18.6067 9.67535 18.5461 9.67535Z" fill="#232323"/>
<path d="M18.5461 14.8519H4.47927C4.41493 14.8586 4.34989 14.8518 4.28836 14.832C4.22683 14.8122 4.17018 14.7799 4.1221 14.7371C4.07401 14.6942 4.03559 14.6419 4.00927 14.5834C3.98295 14.5249 3.96933 14.4615 3.96933 14.3975C3.96933 14.3334 3.98295 14.2701 4.00927 14.2116C4.03559 14.1531 4.07401 14.1008 4.1221 14.0579C4.17018 14.0151 4.22683 13.9827 4.28836 13.9629C4.34989 13.9431 4.41493 13.9364 4.47927 13.9431H18.5715C18.6358 13.9364 18.7009 13.9431 18.7624 13.9629C18.8239 13.9827 18.8806 14.0151 18.9287 14.0579C18.9767 14.1008 19.0152 14.1531 19.0415 14.2116C19.0678 14.2701 19.0814 14.3334 19.0814 14.3975C19.0814 14.4615 19.0678 14.5249 19.0415 14.5834C19.0152 14.6419 18.9767 14.6942 18.9287 14.7371C18.8806 14.7799 18.8239 14.8122 18.7624 14.832C18.7009 14.8518 18.6358 14.8586 18.5715 14.8519H18.5461Z" fill="#232323"/>
<path d="M18.5461 20.0334H4.47927C4.41493 20.0401 4.34989 20.0334 4.28836 20.0136C4.22683 19.9939 4.17018 19.9615 4.1221 19.9186C4.07401 19.8758 4.03559 19.8234 4.00927 19.7649C3.98295 19.7064 3.96933 19.6431 3.96933 19.5791C3.96933 19.5151 3.98295 19.4517 4.00927 19.3932C4.03559 19.3347 4.07401 19.2823 4.1221 19.2395C4.17018 19.1966 4.22683 19.1643 4.28836 19.1445C4.34989 19.1248 4.41493 19.118 4.47927 19.1247H18.5715C18.6358 19.118 18.7009 19.1248 18.7624 19.1445C18.8239 19.1643 18.8806 19.1966 18.9287 19.2395C18.9767 19.2823 19.0152 19.3347 19.0415 19.3932C19.0678 19.4517 19.0814 19.5151 19.0814 19.5791C19.0814 19.6431 19.0678 19.7064 19.0415 19.7649C19.0152 19.8234 18.9767 19.8758 18.9287 19.9186C18.8806 19.9615 18.8239 19.9939 18.7624 20.0136C18.7009 20.0334 18.6358 20.0401 18.5715 20.0334H18.5461Z" fill="#232323"/>
<path d="M13.4327 25.21H4.47927C4.41493 25.2167 4.34989 25.21 4.28836 25.1902C4.22683 25.1704 4.17018 25.1381 4.1221 25.0952C4.07401 25.0524 4.03559 25 4.00927 24.9415C3.98295 24.883 3.96933 24.8197 3.96933 24.7556C3.96933 24.6916 3.98295 24.6283 4.00927 24.5698C4.03559 24.5113 4.07401 24.4589 4.1221 24.4161C4.17018 24.3732 4.22683 24.3409 4.28836 24.3211C4.34989 24.3013 4.41493 24.2945 4.47927 24.3012H13.4581C13.5224 24.2945 13.5875 24.3013 13.649 24.3211C13.7106 24.3409 13.7672 24.3732 13.8153 24.4161C13.8634 24.4589 13.9018 24.5113 13.9281 24.5698C13.9545 24.6283 13.9681 24.6916 13.9681 24.7556C13.9681 24.8197 13.9545 24.883 13.9281 24.9415C13.9018 25 13.8634 25.0524 13.8153 25.0952C13.7672 25.1381 13.7106 25.1704 13.649 25.1902C13.5875 25.21 13.5224 25.2167 13.4581 25.21H13.4327Z" fill="#232323"/>
</g>
<defs>
<clipPath id="clip0_1_54">
<rect width="23" height="30" fill="white"/>
</clipPath>
</defs>
</svg>
