<svg width="32" height="32" viewBox="0 0 32 32" fill="none" xmlns="http://www.w3.org/2000/svg">
<g clip-path="url(#clip0_1_29)">
<path d="M13.0008 25.9331C10.4267 25.9331 7.91045 25.1722 5.77026 23.7468C3.63006 22.3214 1.96208 20.2954 0.977304 17.9252C-0.00747003 15.5549 -0.26482 12.9468 0.237824 10.4308C0.740468 7.91473 1.98051 5.60375 3.80111 3.79015C5.62172 1.97656 7.94111 0.741784 10.4659 0.24206C12.9907 -0.257664 15.6075 0.00010568 17.9853 0.982724C20.3631 1.96534 22.3951 3.62868 23.8242 5.76237C25.2534 7.89607 26.0156 10.4043 26.0143 12.9697C26.0109 16.4079 24.6386 19.7041 22.1986 22.1347C19.7587 24.5652 16.4506 25.9314 13.0008 25.9331ZM13.0008 1.15256C10.6557 1.15256 8.36328 1.84563 6.4134 3.14411C4.46352 4.44259 2.94379 6.2882 2.04636 8.4475C1.14893 10.6068 0.914107 12.9828 1.37161 15.2751C1.82912 17.5674 2.95837 19.673 4.61661 21.3257C6.27484 22.9783 8.38758 24.1038 10.6876 24.5598C12.9877 25.0157 15.3717 24.7817 17.5383 23.8873C19.7049 22.9929 21.5567 21.4783 22.8596 19.535C24.1624 17.5917 24.8578 15.3069 24.8578 12.9697C24.8545 9.83665 23.6042 6.83282 21.3813 4.6174C19.1584 2.40198 16.1445 1.15592 13.0008 1.15256Z" fill="#232323"/>
<path d="M28.9754 32C28.5774 32.0006 28.1832 31.9225 27.8156 31.7703C27.4481 31.6182 27.1145 31.3949 26.834 31.1134L19.4567 23.7609C19.3979 23.7015 19.3528 23.6301 19.3245 23.5517C19.2961 23.4732 19.2852 23.3896 19.2924 23.3065C19.2997 23.2234 19.325 23.1428 19.3665 23.0704C19.408 22.998 19.4648 22.9354 19.533 22.887C20.8219 21.9771 21.9458 20.8549 22.8562 19.5686C22.9046 19.5002 22.9675 19.4432 23.0404 19.4018C23.1134 19.3603 23.1946 19.3354 23.2783 19.3287C23.362 19.3221 23.4461 19.3339 23.5247 19.3633C23.6034 19.3927 23.6745 19.439 23.7331 19.4989L31.1168 26.8514C31.5377 27.2742 31.8239 27.8115 31.9393 28.3959C32.0547 28.9804 31.9942 29.5857 31.7653 30.1359C31.5365 30.6862 31.1496 31.1567 30.6531 31.4884C30.1567 31.8201 29.573 31.998 28.9754 32ZM20.7466 23.419L27.6537 30.3028C28.0049 30.6509 28.4801 30.8462 28.9754 30.8462C29.4707 30.8462 29.9458 30.6509 30.297 30.3028C30.6406 29.9486 30.8327 29.4751 30.8327 28.9824C30.8327 28.4897 30.6406 28.0163 30.297 27.662L23.39 20.7782C22.6237 21.7656 21.7356 22.6529 20.7466 23.419Z" fill="#232323"/>
<path d="M4.25734 13.5397C4.10566 13.5397 3.96019 13.4796 3.85294 13.3728C3.7457 13.2659 3.68548 13.1209 3.68548 12.9698C3.68716 10.5068 4.66869 8.14507 6.41493 6.40234C8.16116 4.6596 10.5296 3.67809 13.0008 3.67307C13.1541 3.67307 13.3012 3.73375 13.4097 3.84182C13.5181 3.9499 13.579 4.09654 13.579 4.24938C13.579 4.40222 13.5181 4.54878 13.4097 4.65686C13.3012 4.76493 13.1541 4.82561 13.0008 4.82561C10.8346 4.82896 8.75809 5.68808 7.22635 7.21467C5.69461 8.74125 4.8326 10.8108 4.82924 12.9698C4.82924 13.1209 4.76898 13.2659 4.66173 13.3728C4.55448 13.4796 4.40901 13.5397 4.25734 13.5397Z" fill="#232323"/>
</g>
<defs>
<clipPath id="clip0_1_29">
<rect width="32" height="32" fill="white"/>
</clipPath>
</defs>
</svg>
